<svg width="784" height="580" viewBox="0 0 784 580" fill="none" xmlns="http://www.w3.org/2000/svg">
<path d="M169.458 328.09C224.42 243.903 192.359 172.023 169.458 146.607C169.458 133.973 181.147 99.9651 227.9 65.0062C286.342 21.3075 508.957 45.3864 539.739 217.505C570.521 389.625 376.459 551.488 249.314 556.839C122.169 562.19 100.756 433.323 169.458 328.09Z" fill="#DAD6F0"/>
<path d="M546.321 66.2533C575.852 89.3541 599.127 49.4199 598.25 22.2376C593.515 -20.9454 576.731 14.4797 527.021 9.43987C477.311 4.4 516.791 43.1524 546.321 66.2533Z" fill="url(#paint0_linear)"/>
<g clip-path="url(#clip0)">
<path d="M568.316 338.419C569.451 337.65 570.74 337.138 572.093 336.921C573.447 336.703 574.832 336.785 576.15 337.16C577.469 337.536 578.689 338.196 579.724 339.094C580.76 339.992 581.586 341.106 582.145 342.358L603.565 341.793L607.084 354.726L576.823 355.1C574.657 355.899 572.274 355.876 570.125 355.035C567.976 354.194 566.209 352.594 565.161 350.538C564.112 348.482 563.854 346.113 564.436 343.879C565.017 341.646 566.398 339.703 568.316 338.419L568.316 338.419Z" fill="#FFB8B8"/>
<path d="M592.341 359.093C591.006 357.849 590.194 356.143 590.072 354.322L589.216 341.465C589.136 340.289 589.348 339.111 589.834 338.036C590.32 336.961 591.064 336.023 592 335.306L626.535 308.773L646.609 284.405C648.644 281.942 651.54 280.347 654.709 279.943C657.878 279.539 661.081 280.356 663.669 282.23L663.669 282.23C665.015 283.207 666.154 284.443 667.018 285.864C667.883 287.286 668.456 288.865 668.705 290.51C668.953 292.155 668.872 293.833 668.466 295.447C668.06 297.06 667.337 298.577 666.34 299.909L642.957 331.126L626.31 348.755C621.018 354.333 614.087 358.082 606.522 359.457L598.49 360.9C597.498 361.078 596.479 361.044 595.501 360.802C594.522 360.56 593.605 360.114 592.811 359.493C592.648 359.366 592.491 359.233 592.341 359.093Z" fill="#6C63FF"/>
<path d="M750.584 560.362L739.493 563.132L723.53 521.669L739.9 517.581L750.584 560.362Z" fill="#FFB8B8"/>
<path d="M730.779 561.942L752.17 556.6L755.533 570.068L720.674 578.774C720.232 577.005 720.143 575.167 720.412 573.363C720.681 571.56 721.302 569.828 722.24 568.265C723.179 566.702 724.416 565.339 725.881 564.254C727.346 563.169 729.01 562.383 730.779 561.942Z" fill="#2F2E41"/>
<path d="M650.479 568.158L639.047 568.157L633.611 524.061L650.483 524.062L650.479 568.158Z" fill="#FFB8B8"/>
<path d="M630.881 564.89H652.929V578.772H616.999C616.999 576.949 617.358 575.144 618.056 573.46C618.753 571.775 619.776 570.245 621.065 568.956C622.354 567.667 623.884 566.644 625.569 565.947C627.253 565.249 629.058 564.89 630.881 564.89Z" fill="#2F2E41"/>
<path d="M645.523 249.879C659.087 249.879 670.084 238.882 670.084 225.318C670.084 211.753 659.087 200.757 645.523 200.757C631.958 200.757 620.962 211.753 620.962 225.318C620.962 238.882 631.958 249.879 645.523 249.879Z" fill="#FFB8B8"/>
<path d="M645.476 226.188C645.521 222.903 651.175 222.492 652.936 225.292C654.697 228.091 653.567 231.744 652.016 234.66C650.4 237.695 648.305 240.76 648.628 244.207C648.739 245.078 649.068 245.905 649.586 246.614C650.103 247.323 650.791 247.889 651.585 248.26C652.38 248.631 653.256 248.795 654.131 248.737C655.006 248.678 655.853 248.399 656.591 247.926C664.614 242.986 671.386 235.796 674.383 227.033C677.534 217.816 675.959 206.83 669.143 199.748C662.327 192.667 650.107 190.664 642.017 196.325L628.208 186.92C627.882 186.691 627.494 186.568 627.097 186.568C626.699 186.569 626.311 186.692 625.986 186.922C625.662 187.151 625.416 187.476 625.283 187.85C625.15 188.225 625.136 188.632 625.243 189.015L627.262 195.578L620.287 193.823C619.99 193.74 619.675 193.75 619.383 193.849C619.091 193.949 618.835 194.134 618.65 194.381C618.465 194.628 618.359 194.926 618.346 195.234C618.333 195.542 618.413 195.847 618.576 196.11L620.97 199.83C617.777 197.202 612.26 200.197 611.802 204.249C611.345 208.301 614.638 212.036 618.511 213.562C622.383 215.089 626.708 214.915 630.88 214.717C630.43 216.735 630.628 218.844 631.447 220.743C632.265 222.642 633.661 224.234 635.437 225.292C639.045 227.383 644.027 226.89 645.476 226.188Z" fill="#2F2E41"/>
<path d="M650.797 549.536C650.749 549.536 650.702 549.536 650.654 549.534L632.996 548.984C632.396 548.965 631.807 548.826 631.261 548.577C630.716 548.327 630.226 547.97 629.821 547.528C629.415 547.086 629.102 546.568 628.9 546.003C628.698 545.439 628.61 544.839 628.643 544.241L637.475 382.074L705.334 401.318L749.833 540.101C750.047 540.766 750.102 541.472 749.995 542.162C749.889 542.853 749.623 543.509 749.219 544.079C748.814 544.649 748.283 545.117 747.667 545.445C747.05 545.774 746.366 545.955 745.668 545.974L725.329 546.514C724.411 546.533 723.508 546.272 722.741 545.767C721.974 545.262 721.378 544.537 721.031 543.686L675.26 429.192C675.138 428.886 674.918 428.629 674.635 428.46C674.351 428.291 674.02 428.221 673.693 428.259C673.365 428.298 673.06 428.443 672.823 428.673C672.586 428.902 672.432 429.203 672.384 429.53L655.246 545.693C655.089 546.761 654.553 547.737 653.736 548.442C652.919 549.148 651.876 549.536 650.797 549.536Z" fill="#2F2E41"/>
<path d="M702.041 422.759C697.221 422.755 692.525 421.229 688.623 418.399L666.787 402.637C661.996 399.185 656.445 396.936 650.603 396.078L640.097 394.546C638.484 394.314 637.014 393.491 635.974 392.237C634.934 390.982 634.398 389.386 634.47 387.758L638.657 287.509L636.172 273.218C635.971 272.053 636.109 270.854 636.568 269.765C637.028 268.676 637.79 267.741 638.765 267.072L658.226 253.757C659.759 252.709 661.605 252.217 663.456 252.362L664.167 252.418C666.16 252.574 668.053 253.353 669.579 254.644C671.105 255.935 672.186 257.674 672.67 259.613L673.416 262.598L686.364 285.616C690.19 292.419 693.066 299.714 694.912 307.297L707.186 357.737C708.253 362.125 708.991 366.586 709.395 371.084L713.46 416.443C713.553 417.425 713.324 418.41 712.809 419.25C712.293 420.09 711.518 420.74 710.601 421.102C707.88 422.194 704.974 422.757 702.041 422.759Z" fill="#6C63FF"/>
<path d="M661.309 386.432C661.042 385.087 661.072 383.7 661.399 382.369C661.726 381.037 662.34 379.794 663.199 378.726C664.059 377.658 665.142 376.791 666.372 376.187C667.603 375.582 668.951 375.255 670.321 375.228L678.141 355.278L691.423 357.073L679.985 385.091C679.878 387.397 678.929 389.583 677.317 391.235C675.706 392.888 673.544 393.891 671.242 394.057C668.94 394.222 666.658 393.537 664.827 392.132C662.996 390.726 661.744 388.698 661.309 386.432Z" fill="#FFB8B8"/>
<path d="M689.705 372.352C688.04 373.098 686.152 373.181 684.427 372.585L672.252 368.368C671.137 367.983 670.135 367.328 669.334 366.462C668.533 365.596 667.959 364.546 667.663 363.404L656.67 321.264L642.042 293.286C640.566 290.453 640.224 287.164 641.085 284.088C641.947 281.012 643.948 278.379 646.68 276.725L646.681 276.725C648.105 275.866 649.687 275.298 651.332 275.055C652.978 274.813 654.656 274.9 656.268 275.311C657.88 275.723 659.394 276.451 660.723 277.453C662.051 278.455 663.166 279.711 664.004 281.149L683.653 314.842L693.41 337.039C696.487 344.086 697.241 351.929 695.563 359.432L693.764 367.392C693.541 368.375 693.114 369.301 692.51 370.108C691.905 370.915 691.138 371.585 690.257 372.076C690.076 372.176 689.892 372.268 689.705 372.352Z" fill="#6C63FF"/>
<path d="M559.995 455.901H17.6543C13.2797 455.896 9.08577 454.156 5.99249 451.063C2.89921 447.97 1.15924 443.776 1.1543 439.401V133.602H576.495V439.401C576.49 443.776 574.75 447.97 571.656 451.063C568.563 454.156 564.369 455.896 559.995 455.901Z" fill="#E6E6E6"/>
<path d="M538.412 424.318H39.2371C36.9835 424.315 34.823 423.419 33.2295 421.825C31.636 420.232 30.7396 418.071 30.7371 415.818V173.684C30.7396 171.431 31.636 169.27 33.2295 167.676C34.823 166.083 36.9835 165.187 39.2371 165.184H538.412C540.665 165.187 542.826 166.083 544.419 167.676C546.013 169.27 546.909 171.431 546.912 173.684V415.818C546.909 418.071 546.013 420.232 544.419 421.825C542.826 423.419 540.665 424.315 538.412 424.318Z" fill="white"/>
<path d="M577.649 144.748H0V131.5C0.00493885 127.125 1.74492 122.931 4.8382 119.838C7.93148 116.745 12.1254 115.005 16.5 115H561.149C565.524 115.005 569.718 116.745 572.811 119.838C575.904 122.931 577.644 127.125 577.649 131.5V144.748Z" fill="#6C63FF"/>
<path d="M166.25 212.706H77.4001C75.1463 212.707 72.9851 213.603 71.3914 215.197C69.7977 216.791 68.9017 218.952 68.9001 221.206V279.606C68.9017 281.86 69.7977 284.021 71.3914 285.615C72.9851 287.208 75.1463 288.104 77.4001 288.106H166.25C168.504 288.103 170.664 287.206 172.257 285.613C173.851 284.019 174.747 281.859 174.75 279.606V221.206C174.747 218.953 173.851 216.792 172.257 215.199C170.664 213.606 168.504 212.709 166.25 212.706Z" fill="#E6E6E6"/>
<path d="M333.25 212.706H244.4C242.146 212.707 239.985 213.603 238.391 215.197C236.798 216.791 235.902 218.952 235.9 221.206V279.606C235.902 281.86 236.798 284.021 238.391 285.615C239.985 287.208 242.146 288.104 244.4 288.106H333.25C335.504 288.103 337.664 287.206 339.257 285.613C340.851 284.019 341.747 281.859 341.75 279.606V221.206C341.747 218.953 340.851 216.792 339.257 215.199C337.664 213.606 335.504 212.709 333.25 212.706Z" fill="#E6E6E6"/>
<path d="M500.25 212.706H411.4C409.146 212.707 406.985 213.603 405.391 215.197C403.798 216.791 402.902 218.952 402.9 221.206V279.606C402.902 281.86 403.798 284.021 405.391 285.615C406.985 287.208 409.146 288.104 411.4 288.106H500.25C502.504 288.103 504.664 287.206 506.257 285.613C507.851 284.019 508.747 281.859 508.75 279.606V221.206C508.747 218.953 507.851 216.792 506.257 215.199C504.664 213.606 502.504 212.709 500.25 212.706Z" fill="#E6E6E6"/>
<path d="M153.68 315.706H89.9703C88.7172 315.706 87.5154 316.204 86.6293 317.09C85.7432 317.976 85.2454 319.178 85.2454 320.431C85.2454 321.684 85.7432 322.886 86.6293 323.772C87.5154 324.658 88.7172 325.156 89.9703 325.156H153.68C154.934 325.156 156.135 324.658 157.021 323.772C157.908 322.886 158.405 321.684 158.405 320.431C158.405 319.178 157.908 317.976 157.021 317.09C156.135 316.204 154.934 315.706 153.68 315.706Z" fill="#E6E6E6"/>
<path d="M153.68 341.526H89.9704C88.8889 341.524 87.8396 341.893 86.9977 342.572C86.1559 343.251 85.5726 344.198 85.3454 345.256C85.1182 346.313 85.2608 347.416 85.7495 348.381C86.2381 349.346 87.0432 350.113 88.03 350.556C88.6391 350.834 89.3009 350.977 89.9704 350.976H153.68C154.934 350.976 156.135 350.478 157.021 349.592C157.908 348.706 158.405 347.504 158.405 346.251C158.405 344.998 157.908 343.796 157.021 342.91C156.135 342.024 154.934 341.526 153.68 341.526Z" fill="#E6E6E6"/>
<path d="M153.68 367.346H89.9703C88.7172 367.346 87.5154 367.844 86.6293 368.73C85.7432 369.616 85.2454 370.818 85.2454 372.071C85.2454 373.324 85.7432 374.526 86.6293 375.412C87.5154 376.298 88.7172 376.796 89.9703 376.796H153.68C154.934 376.796 156.135 376.298 157.021 375.412C157.908 374.526 158.405 373.324 158.405 372.071C158.405 370.818 157.908 369.616 157.021 368.73C156.135 367.844 154.934 367.346 153.68 367.346Z" fill="#E6E6E6"/>
<path d="M320.68 315.706H256.97C255.717 315.706 254.515 316.204 253.629 317.09C252.743 317.976 252.245 319.178 252.245 320.431C252.245 321.684 252.743 322.886 253.629 323.772C254.515 324.658 255.717 325.156 256.97 325.156H320.68C321.934 325.156 323.135 324.658 324.021 323.772C324.908 322.886 325.405 321.684 325.405 320.431C325.405 319.178 324.908 317.976 324.021 317.09C323.135 316.204 321.934 315.706 320.68 315.706Z" fill="#E6E6E6"/>
<path d="M320.68 341.526H256.97C255.717 341.526 254.515 342.024 253.629 342.91C252.743 343.796 252.245 344.998 252.245 346.251C252.245 347.504 252.743 348.706 253.629 349.592C254.515 350.478 255.717 350.976 256.97 350.976H320.68C321.934 350.976 323.135 350.478 324.021 349.592C324.908 348.706 325.405 347.504 325.405 346.251C325.405 344.998 324.908 343.796 324.021 342.91C323.135 342.024 321.934 341.526 320.68 341.526Z" fill="#E6E6E6"/>
<path d="M320.68 367.346H256.97C255.847 367.345 254.76 367.743 253.904 368.471C253.049 369.198 252.48 370.207 252.301 371.316C252.121 372.425 252.343 373.561 252.925 374.521C253.508 375.482 254.414 376.203 255.48 376.556C255.96 376.717 256.464 376.798 256.97 376.796H320.68C321.934 376.796 323.135 376.298 324.021 375.412C324.908 374.526 325.405 373.324 325.405 372.071C325.405 370.818 324.908 369.616 324.021 368.73C323.135 367.844 321.934 367.346 320.68 367.346Z" fill="#E6E6E6"/>
<path d="M487.68 315.706H423.97C422.717 315.706 421.515 316.204 420.629 317.09C419.743 317.976 419.245 319.178 419.245 320.431C419.245 321.684 419.743 322.886 420.629 323.772C421.515 324.658 422.717 325.156 423.97 325.156H487.68C488.934 325.156 490.135 324.658 491.021 323.772C491.908 322.886 492.405 321.684 492.405 320.431C492.405 319.178 491.908 317.976 491.021 317.09C490.135 316.204 488.934 315.706 487.68 315.706Z" fill="#E6E6E6"/>
<path d="M487.68 341.526H423.97C422.889 341.524 421.84 341.893 420.998 342.572C420.156 343.251 419.573 344.198 419.345 345.256C419.118 346.313 419.261 347.416 419.749 348.381C420.238 349.346 421.043 350.113 422.03 350.556C422.639 350.834 423.301 350.977 423.97 350.976H487.68C488.934 350.976 490.135 350.478 491.021 349.592C491.908 348.706 492.405 347.504 492.405 346.251C492.405 344.998 491.908 343.796 491.021 342.91C490.135 342.024 488.934 341.526 487.68 341.526Z" fill="#E6E6E6"/>
<path d="M487.68 367.346H423.97C422.717 367.346 421.515 367.844 420.629 368.73C419.743 369.616 419.245 370.818 419.245 372.071C419.245 373.324 419.743 374.526 420.629 375.412C421.515 376.298 422.717 376.796 423.97 376.796H487.68C488.934 376.796 490.135 376.298 491.021 375.412C491.908 374.526 492.405 373.324 492.405 372.071C492.405 370.818 491.908 369.616 491.021 368.73C490.135 367.844 488.934 367.346 487.68 367.346Z" fill="#E6E6E6"/>
<path d="M18.9255 134.332C21.2912 134.332 23.2089 132.414 23.2089 130.049C23.2089 127.683 21.2912 125.765 18.9255 125.765C16.5598 125.765 14.6421 127.683 14.6421 130.049C14.6421 132.414 16.5598 134.332 18.9255 134.332Z" fill="white"/>
<path d="M35.1843 134.332C37.55 134.332 39.4677 132.414 39.4677 130.049C39.4677 127.683 37.55 125.765 35.1843 125.765C32.8186 125.765 30.9009 127.683 30.9009 130.049C30.9009 132.414 32.8186 134.332 35.1843 134.332Z" fill="white"/>
<path d="M51.4431 134.332C53.8088 134.332 55.7265 132.414 55.7265 130.049C55.7265 127.683 53.8088 125.765 51.4431 125.765C49.0774 125.765 47.1597 127.683 47.1597 130.049C47.1597 132.414 49.0774 134.332 51.4431 134.332Z" fill="white"/>
<path d="M135.55 315.706H89.9704C88.7172 315.706 87.5154 316.204 86.6293 317.09C85.7432 317.976 85.2454 319.178 85.2454 320.431C85.2454 321.684 85.7432 322.886 86.6293 323.772C87.5154 324.658 88.7172 325.156 89.9704 325.156H134.6C135.503 324.786 136.289 324.177 136.872 323.395C137.456 322.613 137.816 321.687 137.913 320.716C138.011 319.745 137.842 318.766 137.426 317.883C137.01 317.001 136.361 316.248 135.55 315.706Z" fill="#6C63FF"/>
<path d="M114.5 341.526H89.9704C88.889 341.524 87.8396 341.893 86.9977 342.572C86.1559 343.251 85.5726 344.198 85.3454 345.256C85.1182 346.313 85.2608 347.416 85.7495 348.381C86.2381 349.346 87.0432 350.113 88.03 350.556H110.56C111.987 350.555 113.355 349.988 114.364 348.98C115.373 347.971 115.94 346.603 115.94 345.176C115.948 343.819 115.432 342.512 114.5 341.526Z" fill="#6C63FF"/>
<path d="M148.92 367.346H89.9704C88.7172 367.346 87.5154 367.844 86.6293 368.73C85.7432 369.616 85.2454 370.818 85.2454 372.071C85.2454 373.324 85.7432 374.526 86.6293 375.412C87.5154 376.298 88.7172 376.796 89.9704 376.796H149.3C150.136 376.303 150.822 375.593 151.286 374.741C151.75 373.889 151.975 372.927 151.936 371.957C151.897 370.988 151.596 370.047 151.065 369.235C150.534 368.423 149.793 367.77 148.92 367.346Z" fill="#6C63FF"/>
<path d="M439.66 315.706H423.97C422.924 315.705 421.907 316.051 421.079 316.69C420.25 317.329 419.657 318.225 419.393 319.238C419.129 320.25 419.208 321.321 419.618 322.284C420.029 323.246 420.747 324.046 421.66 324.556H435.56C436.987 324.555 438.355 323.988 439.364 322.98C440.373 321.971 440.94 320.603 440.94 319.176C440.944 317.903 440.49 316.671 439.66 315.706Z" fill="#6C63FF"/>
<path d="M451.5 341.526H423.97C422.889 341.524 421.84 341.893 420.998 342.572C420.156 343.251 419.573 344.198 419.345 345.256C419.118 346.313 419.261 347.416 419.749 348.381C420.238 349.346 421.043 350.113 422.03 350.556H447.56C448.987 350.555 450.355 349.988 451.364 348.98C452.373 347.971 452.94 346.603 452.94 345.176C452.948 343.819 452.432 342.512 451.5 341.526Z" fill="#6C63FF"/>
<path d="M470.92 367.346H423.97C422.717 367.346 421.515 367.844 420.629 368.73C419.743 369.616 419.245 370.818 419.245 372.071C419.245 373.324 419.743 374.526 420.629 375.412C421.515 376.298 422.717 376.796 423.97 376.796H471.3C472.136 376.303 472.822 375.593 473.286 374.741C473.75 373.889 473.975 372.927 473.936 371.957C473.897 370.988 473.596 370.047 473.065 369.235C472.534 368.423 471.793 367.77 470.92 367.346Z" fill="#6C63FF"/>
<path d="M316.25 341.526H256.97C255.717 341.526 254.515 342.024 253.629 342.91C252.743 343.796 252.245 344.998 252.245 346.251C252.245 347.504 252.743 348.706 253.629 349.592C254.515 350.478 255.717 350.976 256.97 350.976H315.98C316.847 350.541 317.579 349.88 318.1 349.062C318.621 348.244 318.91 347.301 318.938 346.332C318.966 345.362 318.73 344.404 318.257 343.558C317.784 342.712 317.09 342.01 316.25 341.526Z" fill="#6C63FF"/>
<path d="M263.33 367.346H256.97C255.847 367.345 254.76 367.743 253.904 368.471C253.049 369.198 252.48 370.207 252.301 371.316C252.121 372.425 252.343 373.561 252.925 374.521C253.508 375.482 254.414 376.203 255.48 376.556H259.56C260.987 376.555 262.355 375.988 263.364 374.98C264.373 373.971 264.94 372.603 264.94 371.176C264.943 370.462 264.802 369.755 264.525 369.097C264.248 368.439 263.842 367.844 263.33 367.346Z" fill="#6C63FF"/>
<path d="M291.55 315.706H256.97C255.717 315.706 254.515 316.204 253.629 317.09C252.743 317.976 252.245 319.178 252.245 320.431C252.245 321.684 252.743 322.886 253.629 323.772C254.515 324.658 255.717 325.156 256.97 325.156H290.6C291.503 324.786 292.289 324.177 292.872 323.395C293.456 322.613 293.816 321.687 293.913 320.716C294.011 319.745 293.842 318.766 293.426 317.883C293.01 317.001 292.361 316.248 291.55 315.706Z" fill="#6C63FF"/>
<path d="M782.574 579.726H565.574C565.309 579.726 565.054 579.621 564.867 579.433C564.679 579.246 564.574 578.991 564.574 578.726C564.574 578.461 564.679 578.206 564.867 578.019C565.054 577.831 565.309 577.726 565.574 577.726H782.574C782.839 577.726 783.094 577.831 783.281 578.019C783.469 578.206 783.574 578.461 783.574 578.726C783.574 578.991 783.469 579.246 783.281 579.433C783.094 579.621 782.839 579.726 782.574 579.726Z" fill="#CCCCCC"/>
</g>
<defs>
<linearGradient id="paint0_linear" x1="476.5" y1="2.5" x2="574" y2="46.5" gradientUnits="userSpaceOnUse">
<stop stop-color="#DAD6F0"/>
<stop offset="1" stop-color="#DAD6F0" stop-opacity="0"/>
</linearGradient>
<clipPath id="clip0">
<rect width="783.574" height="464.726" fill="white" transform="translate(0 115)"/>
</clipPath>
</defs>
</svg>
