<svg width="180" height="47" viewBox="0 0 180 47" fill="none" xmlns="http://www.w3.org/2000/svg">
<path d="M76.44 34.36C73.7 34.36 71.55 33.44 69.99 31.6C68.43 29.74 67.65 27.05 67.65 23.53C67.65 21.77 67.85 20.22 68.25 18.88C68.65 17.54 69.23 16.41 69.99 15.49C70.75 14.57 71.67 13.88 72.75 13.42C73.85 12.94 75.08 12.7 76.44 12.7C78.26 12.7 79.78 13.1 81 13.9C82.24 14.7 83.21 15.88 83.91 17.44L81.06 19C80.7 18 80.14 17.21 79.38 16.63C78.64 16.03 77.66 15.73 76.44 15.73C74.82 15.73 73.55 16.28 72.63 17.38C71.71 18.48 71.25 20 71.25 21.94V25.12C71.25 27.06 71.71 28.58 72.63 29.68C73.55 30.78 74.82 31.33 76.44 31.33C77.7 31.33 78.72 31.01 79.5 30.37C80.3 29.71 80.89 28.87 81.27 27.85L84 29.5C83.3 31.02 82.32 32.21 81.06 33.07C79.8 33.93 78.26 34.36 76.44 34.36ZM87.3537 11.8H90.6237V20.98H90.7737C91.1137 20.14 91.6237 19.44 92.3037 18.88C93.0037 18.32 93.9537 18.04 95.1537 18.04C96.7537 18.04 97.9937 18.57 98.8737 19.63C99.7737 20.67 100.224 22.16 100.224 24.1V34H96.9537V24.49C96.9537 22.07 95.9737 20.86 94.0137 20.86C93.5937 20.86 93.1737 20.92 92.7537 21.04C92.3537 21.14 91.9937 21.3 91.6737 21.52C91.3537 21.74 91.0937 22.02 90.8937 22.36C90.7137 22.7 90.6237 23.09 90.6237 23.53V34H87.3537V11.8ZM110.876 34.36C109.756 34.36 108.756 34.17 107.876 33.79C106.996 33.41 106.246 32.87 105.626 32.17C105.006 31.45 104.526 30.59 104.186 29.59C103.866 28.57 103.706 27.44 103.706 26.2C103.706 24.96 103.866 23.84 104.186 22.84C104.526 21.82 105.006 20.96 105.626 20.26C106.246 19.54 106.996 18.99 107.876 18.61C108.756 18.23 109.756 18.04 110.876 18.04C112.016 18.04 113.016 18.24 113.876 18.64C114.756 19.04 115.486 19.6 116.066 20.32C116.646 21.02 117.076 21.84 117.356 22.78C117.656 23.72 117.806 24.73 117.806 25.81V27.04H107.096V27.55C107.096 28.75 107.446 29.74 108.146 30.52C108.866 31.28 109.886 31.66 111.206 31.66C112.166 31.66 112.976 31.45 113.636 31.03C114.296 30.61 114.856 30.04 115.316 29.32L117.236 31.21C116.656 32.17 115.816 32.94 114.716 33.52C113.616 34.08 112.336 34.36 110.876 34.36ZM110.876 20.59C110.316 20.59 109.796 20.69 109.316 20.89C108.856 21.09 108.456 21.37 108.116 21.73C107.796 22.09 107.546 22.52 107.366 23.02C107.186 23.52 107.096 24.07 107.096 24.67V24.88H114.356V24.58C114.356 23.38 114.046 22.42 113.426 21.7C112.806 20.96 111.956 20.59 110.876 20.59ZM127.456 34.36C126.336 34.36 125.336 34.17 124.456 33.79C123.576 33.41 122.836 32.87 122.236 32.17C121.636 31.45 121.176 30.59 120.856 29.59C120.536 28.57 120.376 27.44 120.376 26.2C120.376 24.96 120.536 23.84 120.856 22.84C121.176 21.82 121.636 20.96 122.236 20.26C122.836 19.54 123.576 18.99 124.456 18.61C125.336 18.23 126.336 18.04 127.456 18.04C129.016 18.04 130.296 18.39 131.296 19.09C132.296 19.79 133.026 20.72 133.486 21.88L130.786 23.14C130.566 22.42 130.176 21.85 129.616 21.43C129.076 20.99 128.356 20.77 127.456 20.77C126.256 20.77 125.346 21.15 124.726 21.91C124.126 22.65 123.826 23.62 123.826 24.82V27.61C123.826 28.81 124.126 29.79 124.726 30.55C125.346 31.29 126.256 31.66 127.456 31.66C128.416 31.66 129.176 31.43 129.736 30.97C130.316 30.49 130.776 29.86 131.116 29.08L133.606 30.4C133.086 31.68 132.306 32.66 131.266 33.34C130.226 34.02 128.956 34.36 127.456 34.36ZM136.719 11.8H139.989V25.42H140.139L142.299 22.63L146.049 18.4H149.859L144.399 24.43L150.519 34H146.619L142.149 26.56L139.989 28.9V34H136.719V11.8ZM151.415 26.53V23.2H159.725V26.53H151.415ZM165.586 15.61C164.906 15.61 164.406 15.45 164.086 15.13C163.786 14.81 163.636 14.4 163.636 13.9V13.39C163.636 12.89 163.786 12.48 164.086 12.16C164.406 11.84 164.906 11.68 165.586 11.68C166.266 11.68 166.756 11.84 167.056 12.16C167.356 12.48 167.506 12.89 167.506 13.39V13.9C167.506 14.4 167.356 14.81 167.056 15.13C166.756 15.45 166.266 15.61 165.586 15.61ZM163.936 18.4H167.206V34H163.936V18.4ZM176.195 34C175.055 34 174.195 33.71 173.615 33.13C173.035 32.53 172.745 31.69 172.745 30.61V21.07H170.315V18.4H171.635C172.175 18.4 172.545 18.28 172.745 18.04C172.965 17.8 173.075 17.41 173.075 16.87V14.14H176.015V18.4H179.285V21.07H176.015V31.33H179.045V34H176.195Z" fill="#707FE5"/>
<path d="M46.162 1.13406C45.042 -0.377936 43.2289 -0.37806 42.1088 1.13393L28.5767 19.3974L15.0446 37.6609L4.89129 23.9576C3.77128 22.4456 1.95819 22.4454 0.838085 23.9574C-0.279362 25.4657 -0.279362 27.9197 0.838085 29.4277L13.0181 45.8665C14.1379 47.3777 15.9513 47.378 17.0712 45.8665L46.162 6.60419C47.2793 5.09604 47.2793 2.64196 46.162 1.13406Z" fill="url(#paint0_linear)" fill-opacity="0.7"/>
<defs>
<linearGradient id="paint0_linear" x1="3.91667" y1="15.1975" x2="30.6246" y2="39.0085" gradientUnits="userSpaceOnUse">
<stop stop-color="#707FE5"/>
<stop offset="1" stop-color="#8257E5"/>
<stop offset="1" stop-color="#57B6E5"/>
</linearGradient>
</defs>
</svg>
